<?xml version="1.0" encoding="UTF-8"?>
<svg version="1.1" xmlns="http://www.w3.org/2000/svg" width="1920" height="1920">
<path d="M0 0 C35.31 0 70.62 0 107 0 C107 0.66 107 1.32 107 2 C108.26444946 2.03758423 108.26444946 2.03758423 109.55444336 2.07592773 C112.67241674 2.17088155 115.79021503 2.27012448 118.90795898 2.37231445 C120.25914147 2.41571223 121.61038053 2.4573837 122.96166992 2.49731445 C124.90036701 2.55489952 126.83886276 2.61914298 128.77734375 2.68359375 C129.94515381 2.72025146 131.11296387 2.75690918 132.31616211 2.79467773 C135 3 135 3 136 4 C138.34723966 4.397493 140.70328548 4.74368723 143.0625 5.0625 C144.35285156 5.23910156 145.64320313 5.41570312 146.97265625 5.59765625 C148.47119141 5.79681641 148.47119141 5.79681641 150 6 C150 6.66 150 7.32 150 8 C151.91425781 7.96519531 151.91425781 7.96519531 153.8671875 7.9296875 C155.5364525 7.91093171 157.2057238 7.89273131 158.875 7.875 C159.71675781 7.85824219 160.55851563 7.84148437 161.42578125 7.82421875 C162.23144531 7.81777344 163.03710938 7.81132812 163.8671875 7.8046875 C164.61081543 7.79421387 165.35444336 7.78374023 166.12060547 7.77294922 C168 8 168 8 170 10 C172.12860662 10.36952049 172.12860662 10.36952049 174.5703125 10.4140625 C175.46621094 10.45273437 176.36210938 10.49140625 177.28515625 10.53125 C178.22230469 10.5621875 179.15945313 10.593125 180.125 10.625 C181.54232422 10.68300781 181.54232422 10.68300781 182.98828125 10.7421875 C185.32532375 10.83661346 187.66235501 10.92218394 190 11 C190.33 11.66 190.66 12.32 191 13 C193.32506659 13.39156228 193.32506659 13.39156228 196 13.5 C198.75 13.65625 198.75 13.65625 201 14 C201.33 14.66 201.66 15.32 202 16 C204.35599235 16.46751788 204.35599235 16.46751788 207.0625 16.625 C208.44115234 16.73714844 208.44115234 16.73714844 209.84765625 16.8515625 C210.55792969 16.90054687 211.26820313 16.94953125 212 17 C212 17.66 212 18.32 212 19 C216.95 19.33 221.9 19.66 227 20 C227 20.66 227 21.32 227 22 C228.7015625 22.12375 228.7015625 22.12375 230.4375 22.25 C233.78218062 22.64901453 236.3038945 23.50112794 239.3125 25 C243.79841187 27.17641099 247.86719467 27.54798203 252.8125 27.7265625 C253.534375 27.81679688 254.25625 27.90703125 255 28 C255.33 28.66 255.66 29.32 256 30 C256.825 30.165 257.65 30.33 258.5 30.5 C259.325 30.665 260.15 30.83 261 31 C261.33 31.66 261.66 32.32 262 33 C264.29104269 33.39205568 264.29104269 33.39205568 266.9375 33.5 C271.77862595 33.77862595 271.77862595 33.77862595 274 36 C275.134375 36.144375 276.26875 36.28875 277.4375 36.4375 C281 37 281 37 282.9375 38.4375 C284 40 284 40 284 42 C285.299375 42.144375 286.59875 42.28875 287.9375 42.4375 C291.875 42.875 291.875 42.875 293 44 C294.134375 44.144375 295.26875 44.28875 296.4375 44.4375 C300 45 300 45 302 47 C302.845625 47.165 303.69125 47.33 304.5625 47.5 C305.366875 47.665 306.17125 47.83 307 48 C307.33 48.66 307.66 49.32 308 50 C308.66 50.165 309.32 50.33 310 50.5 C310.66 50.665 311.32 50.83 312 51 C312.33 51.66 312.66 52.32 313 53 C314.86492402 53.38995102 314.86492402 53.38995102 317 53.5 C319.1875 53.65625 319.1875 53.65625 321 54 C321.33 54.66 321.66 55.32 322 56 C323.2375 56.103125 324.475 56.20625 325.75 56.3125 C330.27243496 56.74937207 332.04390107 58.53714126 335 62 C337.92159152 64.30748423 337.92159152 64.30748423 341.75 64.25 C346.74566027 64.73940849 349.69069002 67.38373953 353 71 C353.33 71.66 353.66 72.32 354 73 C355.155 73.165 356.31 73.33 357.5 73.5 C358.655 73.665 359.81 73.83 361 74 C361.33 74.66 361.66 75.32 362 76 C362.78375 76.144375 363.5675 76.28875 364.375 76.4375 C367.26386705 77.05654294 368.23647793 77.67957622 370 80 C370 80.66 370 81.32 370 82 C370.804375 82.144375 371.60875 82.28875 372.4375 82.4375 C375 83 375 83 376 84 C377.0725 84.0825 378.145 84.165 379.25 84.25 C383.73202714 85.14640543 384.9617806 86.71543849 388 90 C390.14733927 90.70514846 390.14733927 90.70514846 392 91 C392.33 91.66 392.66 92.32 393 93 C395.01669827 94.13350534 395.01669827 94.13350534 397 95 C397 96.65 397 98.3 397 100 C397.99 100.33 398.98 100.66 400 101 C400 104.63 400 108.26 400 112 C398.515 112.495 398.515 112.495 397 113 C397.103125 113.7425 397.20625 114.485 397.3125 115.25 C397.209375 116.1575 397.10625 117.065 397 118 C396.195625 118.61875 395.39125 119.2375 394.5625 119.875 C391.630031 121.84742481 391.630031 121.84742481 391.3125 125.625 C391.1578125 127.295625 391.1578125 127.295625 391 129 C390.34 129.66 389.68 130.32 389 131 C388.30959426 132.65697379 387.6469365 134.3255761 387 136 C386.01577854 138.00781177 385.01765927 140.00892752 384 142 C382.77616148 143.97853945 382.77616148 143.97853945 383.3125 146.3125 C382.83814582 150.39194596 380.10700054 151.5270812 377 154 C376.24756445 155.92638012 376.24756445 155.92638012 376 158 C375 160 374 162 373 164 C372.649375 165.093125 372.29875 166.18625 371.9375 167.3125 C371 170 371 170 369 171 C367.81301973 173.51360529 367.03261563 175.83284489 366.5 178.5625 C365.99957071 181.00209278 365.20381189 182.8331386 364 185 C363.34 185 362.68 185 362 185 C362.226875 185.598125 362.45375 186.19625 362.6875 186.8125 C362.790625 187.534375 362.89375 188.25625 363 189 C361.625 190.5625 361.625 190.5625 360 192 C359.67 192.99 359.34 193.98 359 195 C357.31069429 198.60897128 355.65296342 202.00099787 353 205 C352.34 205 351.68 205 351 205 C351.04125 206.11375 351.0825 207.2275 351.125 208.375 C351 212 351 212 349 214 C348.35232207 216.57061311 348.35232207 216.57061311 348 219 C347.01 219 346.02 219 345 219 C345.103125 219.721875 345.20625 220.44375 345.3125 221.1875 C344.87533463 225.12198832 342.83620357 226.37132352 340 229 C339.67 229.99 339.34 230.98 339 232 C337.31069429 235.60897128 335.65296342 239.00099787 333 242 C332.34 242 331.68 242 331 242 C330.896875 242.639375 330.79375 243.27875 330.6875 243.9375 C329.75978162 248.07006369 328.39659645 252.00558942 327 256 C326.67 256.99 326.34 257.98 326 259 C325.67 259.66 325.34 260.32 325 261 C324.01 261.33 323.02 261.66 322 262 C320.82917122 264.92914165 320.82917122 264.92914165 320 268 C319.67 268.66 319.34 269.32 319 270 C318.34 270 317.68 270 317 270 C317.1546875 271.5159375 317.1546875 271.5159375 317.3125 273.0625 C316.95736173 277.53724218 315.91679694 278.9368679 313.234375 282.3125 C311.49791347 284.68639677 310.83444124 287.19866156 310 290 C309.02995879 292.01470098 308.03755118 294.01922047 307 296 C306.34 296 305.68 296 305 296 C304.67 296.99 304.34 297.98 304 299 C299.71 299 295.42 299 291 299 C290.67 298.01 290.34 297.02 290 296 C289.01 296 288.02 296 287 296 C285.65576661 294.34211215 284.32381517 292.67423683 283 291 C280.42417034 289.1506864 278.72919311 288.07478904 275.5625 287.75 C272.00063876 286.70750403 270.6887054 284.51547988 268.52734375 281.59375 C266.73983466 279.72852312 265.51641596 279.3896386 263 279 C263 278.34 263 277.68 263 277 C261.39125 276.62875 261.39125 276.62875 259.75 276.25 C255.90669323 274.96889774 254.68114697 273.86605366 252 271 C249.8618034 270.2127322 249.8618034 270.2127322 248 270 C248 269.34 248 268.68 248 268 C246.948125 267.731875 245.89625 267.46375 244.8125 267.1875 C241.38124842 266.11874951 239.00375768 264.89711011 236 263 C233.27683794 261.81298064 230.59169526 260.87436777 227.75 260 C225 259 225 259 224 257 C221.97536745 256.34786708 221.97536745 256.34786708 220 256 C220 255.34 220 254.68 220 254 C219.0409375 253.5359375 219.0409375 253.5359375 218.0625 253.0625 C216 252 216 252 215 251 C213.31816052 250.76712992 211.6287584 250.58735834 209.9375 250.4375 C209.01839844 250.35371094 208.09929688 250.26992188 207.15234375 250.18359375 C206.44207031 250.12300781 205.73179687 250.06242188 205 250 C205 249.34 205 248.68 205 248 C203.02 247.67 201.04 247.34 199 247 C199 246.34 199 245.68 199 245 C198.01 244.67 197.02 244.34 196 244 C196 243.34 196 242.68 196 242 C193.69 242 191.38 242 189 242 C189 241.34 189 240.68 189 240 C187.73542969 239.92652344 187.73542969 239.92652344 186.4453125 239.8515625 C185.34960938 239.77679687 184.25390625 239.70203125 183.125 239.625 C182.03445313 239.55539062 180.94390625 239.48578125 179.8203125 239.4140625 C177 239 177 239 175 237 C172.93125966 236.3574765 172.93125966 236.3574765 171 236 C171 235.34 171 234.68 171 234 C168.36 233.67 165.72 233.34 163 233 C163 232.34 163 231.68 163 231 C160.03 230.67 157.06 230.34 154 230 C154 229.34 154 228.68 154 228 C151.36 228 148.72 228 146 228 C145.67 227.01 145.34 226.02 145 225 C142.36 225 139.72 225 137 225 C136.67 224.34 136.34 223.68 136 223 C128.74 222.67 121.48 222.34 114 222 C113.67 221.34 113.34 220.68 113 220 C110.66752239 219.66073053 108.33414529 219.32759934 106 219 C105.34 218.34 104.68 217.68 104 217 C102.06742145 216.63168919 102.06742145 216.63168919 99.8671875 216.5859375 C98.65869141 216.52792969 98.65869141 216.52792969 97.42578125 216.46875 C96.58402344 216.4378125 95.74226563 216.406875 94.875 216.375 C93.60076172 216.31699219 93.60076172 216.31699219 92.30078125 216.2578125 C90.20088316 216.16343506 88.10047109 216.08062414 86 216 C86 215.34 86 214.68 86 214 C60.92 214 35.84 214 10 214 C10 214.66 10 215.32 10 216 C9.28972656 216.04898438 8.57945312 216.09796875 7.84765625 216.1484375 C6.46900391 216.26058594 6.46900391 216.26058594 5.0625 216.375 C4.14597656 216.44460938 3.22945313 216.51421875 2.28515625 216.5859375 C1.53105469 216.72257813 0.77695312 216.85921875 0 217 C-0.33 217.66 -0.66 218.32 -1 219 C-3.58317727 219.39465208 -6.14188281 219.50806152 -8.75 219.65625 C-9.4925 219.7696875 -10.235 219.883125 -11 220 C-11.33 220.66 -11.66 221.32 -12 222 C-14.06265822 222.3911938 -16.09443267 222.50674519 -18.1875 222.65625 C-18.785625 222.7696875 -19.38375 222.883125 -20 223 C-20.33 223.66 -20.66 224.32 -21 225 C-23.64 225 -26.28 225 -29 225 C-29.33 225.99 -29.66 226.98 -30 228 C-30.66 228 -31.32 228 -32 228 C-32 228.66 -32 229.32 -32 230 C-35.92438786 231.66489182 -39.89100419 232.87204037 -44 234 C-44 234.66 -44 235.32 -44 236 C-45.25 237.625 -45.25 237.625 -47 239 C-48.32 239 -49.64 239 -51 239 C-51.0825 239.721875 -51.165 240.44375 -51.25 241.1875 C-52.14725608 244.55221031 -53.78537514 246.35673807 -56 249 C-56 249.66 -56 250.32 -56 251 C-56.66 251 -57.32 251 -58 251 C-58 265.85 -58 280.7 -58 296 C-56.35 296.66 -54.7 297.32 -53 298 C-52.1875 301.125 -52.1875 301.125 -52 304 C-51.34 304 -50.68 304 -50 304 C-47 307.46153846 -47 307.46153846 -47 310 C-46.401875 310.28875 -45.80375 310.5775 -45.1875 310.875 C-43 312 -43 312 -40 314 C-40 314.66 -40 315.32 -40 316 C-39.34 316 -38.68 316 -38 316 C-37.67 316.66 -37.34 317.32 -37 318 C-36.34 318.165 -35.68 318.33 -35 318.5 C-34.34 318.665 -33.68 318.83 -33 319 C-32.67 319.66 -32.34 320.32 -32 321 C-30.10466658 321.46523063 -30.10466658 321.46523063 -27.9375 321.625 C-26.638125 321.74875 -25.33875 321.8725 -24 322 C-24 322.66 -24 323.32 -24 324 C-22.02 324.33 -20.04 324.66 -18 325 C-18 325.66 -18 326.32 -18 327 C-17.01 327.33 -16.02 327.66 -15 328 C-15 328.66 -15 329.32 -15 330 C-13.02 330 -11.04 330 -9 330 C-9 330.66 -9 331.32 -9 332 C-4.71 332.33 -0.42 332.66 4 333 C4.33 333.99 4.66 334.98 5 336 C6.65 336 8.3 336 10 336 C10.33 336.66 10.66 337.32 11 338 C13.32156597 338.40729228 15.6568787 338.74438677 18 339 C18 339.66 18 340.32 18 341 C18.84304688 341.04898437 19.68609375 341.09796875 20.5546875 341.1484375 C21.65039062 341.22320313 22.74609375 341.29796875 23.875 341.375 C24.96554687 341.44460938 26.05609375 341.51421875 27.1796875 341.5859375 C30 342 30 342 32 344 C34.32275177 344.40047444 36.65739357 344.7397104 39 345 C39 345.66 39 346.32 39 347 C42.63 347.33 46.26 347.66 50 348 C50 348.66 50 349.32 50 350 C53.63 350 57.26 350 61 350 C61.33 350.99 61.66 351.98 62 353 C64.64 353 67.28 353 70 353 C70.33 353.66 70.66 354.32 71 355 C73.35599235 355.46751788 73.35599235 355.46751788 76.0625 355.625 C76.98160156 355.69976563 77.90070313 355.77453125 78.84765625 355.8515625 C79.55792969 355.90054687 80.26820313 355.94953125 81 356 C81 356.66 81 357.32 81 358 C82.07121094 358.04898437 83.14242188 358.09796875 84.24609375 358.1484375 C85.64325639 358.22345294 87.0403905 358.2990013 88.4375 358.375 C89.14455078 358.4059375 89.85160156 358.436875 90.58007812 358.46875 C92.39239188 358.57280629 94.19817988 358.77919892 96 359 C96.33 359.66 96.66 360.32 97 361 C99.33247761 361.33926947 101.66585471 361.67240066 104 362 C104.66 362.66 105.32 363.32 106 364 C108.16999194 364.4230689 108.16999194 364.4230689 110.5625 364.5625 C114.90277778 364.90277778 114.90277778 364.90277778 116 366 C117.78715644 366.20956883 119.58043769 366.36811616 121.375 366.5 C124.52020509 366.73236344 126.99627907 366.99875969 130 368 C130 368.66 130 369.32 130 370 C133.63 370 137.26 370 141 370 C141.33 370.99 141.66 371.98 142 373 C145.3 373 148.6 373 152 373 C152 373.66 152 374.32 152 375 C155.96 375.33 159.92 375.66 164 376 C164 376.66 164 377.32 164 378 C166.97 378.33 169.94 378.66 173 379 C173 379.66 173 380.32 173 381 C174.27875 381.12375 175.5575 381.2475 176.875 381.375 C180.75 381.75 180.75 381.75 183 384 C184.98821313 384.39764263 186.98944339 384.73775349 189 385 C189 385.66 189 386.32 189 387 C189.98742187 386.97679687 190.97484375 386.95359375 191.9921875 386.9296875 C193.27351562 386.91164063 194.55484375 386.89359375 195.875 386.875 C197.15117188 386.85179687 198.42734375 386.82859375 199.7421875 386.8046875 C203 387 203 387 205 389 C205.845625 389.165 206.69125 389.33 207.5625 389.5 C208.366875 389.665 209.17125 389.83 210 390 C210.33 390.66 210.66 391.32 211 392 C213.32206525 392.70491267 215.65593068 393.37212429 218 394 C218.33 394.33 218.66 394.66 219 395 C221.84087552 395.28318854 224.68165215 395.44850213 227.53125 395.62109375 C228.3459375 395.74613281 229.160625 395.87117188 230 396 C230.33 396.66 230.66 397.32 231 398 C233.33247761 398.33926947 235.66585471 398.67240066 238 399 C238.66 399.66 239.32 400.32 240 401 C242.06874034 401.6425235 242.06874034 401.6425235 244 402 C244 402.66 244 403.32 244 404 C246.64 404.33 249.28 404.66 252 405 C252 405.66 252 406.32 252 407 C253.918125 406.938125 253.918125 406.938125 255.875 406.875 C258.0546875 406.8046875 258.0546875 406.8046875 260 407 C260.66 407.66 261.32 408.32 262 409 C262.680625 409.165 263.36125 409.33 264.0625 409.5 C264.701875 409.665 265.34125 409.83 266 410 C266.33 410.66 266.66 411.32 267 412 C269.02543556 412.25719817 271.05350224 412.50842122 273.08984375 412.65625 C275 413 275 413 277 415 C277.845625 415.165 278.69125 415.33 279.5625 415.5 C280.366875 415.665 281.17125 415.83 282 416 C282.33 416.66 282.66 417.32 283 418 C283.99 418.33 284.98 418.66 286 419 C286 419.66 286 420.32 286 421 C287.98 421.33 289.96 421.66 292 422 C292 422.66 292 423.32 292 424 C292.78375 423.95875 293.5675 423.9175 294.375 423.875 C297 424 297 424 299 426 C299.680625 426.165 300.36125 426.33 301.0625 426.5 C301.701875 426.665 302.34125 426.83 303 427 C303.33 427.66 303.66 428.32 304 429 C304.99 429.33 305.98 429.66 307 430 C307.33 430.66 307.66 431.32 308 432 C310.02463255 432.65213292 310.02463255 432.65213292 312 433 C312 433.66 312 434.32 312 435 C313.98 435.33 315.96 435.66 318 436 C318 436.66 318 437.32 318 438 C319.65 438.33 321.3 438.66 323 439 C323 439.66 323 440.32 323 441 C324.32 441.33 325.64 441.66 327 442 C327 442.66 327 443.32 327 444 C328.65 444.33 330.3 444.66 332 445 C332 445.66 332 446.32 332 447 C332.99 447 333.98 447 335 447 C335.33 447.66 335.66 448.32 336 449 C336.763125 449.103125 337.52625 449.20625 338.3125 449.3125 C341.93391236 450.23890781 342.86572274 452.01201183 345 455 C346.77919469 457.08861985 347.77287445 457.91632217 350.375 458.875 C353.71995868 460.30855372 355.61980825 462.27978086 358 465 C358 465.66 358 466.32 358 467 C358.66 467 359.32 467 360 467 C361.625 468.375 361.625 468.375 363 470 C363 470.66 363 471.32 363 472 C363.90105469 472.14695312 363.90105469 472.14695312 364.8203125 472.296875 C367.44437764 473.14334763 368.21050787 474.08710063 369.875 476.25 C371.88407835 478.74597234 373.86017907 480.82555422 376.375 482.8125 C377.24125 483.534375 378.1075 484.25625 379 485 C379 485.66 379 486.32 379 487 C379.66 487 380.32 487 381 487 C382.62109375 488.64453125 382.62109375 488.64453125 384.4375 490.8125 C386.96366497 493.81269168 386.96366497 493.81269168 389.6875 496.62890625 C391.31052318 498.32438582 391.47534615 499.75148351 392 502 C392.66 502.33 393.32 502.66 394 503 C394.20302734 503.90298828 394.20302734 503.90298828 394.41015625 504.82421875 C395.15815253 507.58338384 396.44803895 508.78167801 398.4375 510.8125 C400.97881772 513.5848466 401.9585717 514.85241167 403 518.5625 C404.06853985 522.23560575 404.83213378 523.02336478 407.5625 525.5 C411.13652077 528.76387847 411.7067911 531.113185 412 536 C412.66 536.33 413.32 536.66 414 537 C415.54266151 540.2668126 416.39102647 543.44765442 417 547 C417.99 547.33 418.98 547.66 420 548 C420.06058594 548.73605469 420.12117187 549.47210937 420.18359375 550.23046875 C420.26738281 551.20628906 420.35117187 552.18210937 420.4375 553.1875 C420.51871094 554.15042969 420.59992187 555.11335937 420.68359375 556.10546875 C420.97666151 558.78649602 421.42703754 561.3662986 422 564 C422.99 564.33 423.98 564.66 425 565 C425 566.65 425 568.3 425 570 C425.99 570 426.98 570 428 570 C428.04898438 570.99902344 428.09796875 571.99804688 428.1484375 573.02734375 C428.22320313 574.31769531 428.29796875 575.60804688 428.375 576.9375 C428.47941406 578.86916016 428.47941406 578.86916016 428.5859375 580.83984375 C428.72257813 581.88269531 428.85921875 582.92554688 429 584 C429.66 584.33 430.32 584.66 431 585 C431.33 591.27 431.66 597.54 432 604 C432.66 604.33 433.32 604.66 434 605 C434.39593121 607.84350596 434.50849854 610.6648717 434.65625 613.53125 C434.7696875 614.3459375 434.883125 615.160625 435 616 C435.66 616.33 436.32 616.66 437 617 C437 636.8 437 656.6 437 677 C436.34 677.33 435.68 677.66 435 678 C434.74051219 680.68923726 434.57872686 683.30476284 434.5 686 C434.42127314 688.69523716 434.25948781 691.31076274 434 694 C433.34 694.33 432.68 694.66 432 695 C431.60701599 698.01433291 431.60701599 698.01433291 431.5 701.5 C431.34375 705.09375 431.34375 705.09375 431 708 C430.34 708.33 429.68 708.66 429 709 C428.53045739 712.04581269 428.53045739 712.04581269 428.375 715.5625 C428.30023437 716.76003906 428.22546875 717.95757813 428.1484375 719.19140625 C428.09945312 720.11824219 428.05046875 721.04507813 428 722 C427.01 722.33 426.02 722.66 425 723 C425.03480469 724.01320313 425.03480469 724.01320313 425.0703125 725.046875 C425.09738281 726.38492187 425.09738281 726.38492187 425.125 727.75 C425.14820313 728.63171875 425.17140625 729.5134375 425.1953125 730.421875 C424.9885751 733.15080862 424.35500243 734.6549958 423 737 C420.70746082 742.52906509 420.39948216 748.09186908 420 754 C418.68 754.33 417.36 754.66 416 755 C416.33 756.32 416.66 757.64 417 759 C416.195625 759.515625 415.39125 760.03125 414.5625 760.5625 C411.31413419 763.65240894 411.40365669 765.64050773 411 770 C410.34 770.66 409.68 771.32 409 772 C408.896875 772.78375 408.79375 773.5675 408.6875 774.375 C408 777 408 777 405.5 778.9375 C402.3040661 781.57414547 402.4738379 782.97237787 402 787 C400.31135314 791.74429357 399.05046052 794.12547963 395 797 C394.690625 797.78375 394.38125 798.5675 394.0625 799.375 C392.69312269 802.75816748 390.72515911 804.61548577 388 807 C387.34 807 386.68 807 386 807 C385.34 808.65 384.68 810.3 384 812 C383.34 812 382.68 812 382 812 C382.185625 812.5775 382.37125 813.155 382.5625 813.75 C383.06210219 816.31938268 383.01085928 817.58948942 382 820 C380.02544516 821.77029055 378.24898928 822.89329031 375.8125 823.9375 C375.214375 824.288125 374.61625 824.63875 374 825 C373.80277344 825.93199219 373.80277344 825.93199219 373.6015625 826.8828125 C372.83941232 829.56518521 371.7674844 830.28261566 369.5625 831.9375 C366.44984381 834.43141317 365.44621694 836.28115645 364 840 C361.5 841.125 361.5 841.125 359 842 C357.05084711 844.76219576 357.05084711 844.76219576 356.0625 847 C354.90044547 849.18739676 353.99494377 850.52226388 352 852 C349.3125 852.1875 349.3125 852.1875 347 852 C346.67 852.99 346.34 853.98 346 855 C345.34 855 344.68 855 344 855 C343.67 855.99 343.34 856.98 343 858 C342.34 858 341.68 858 341 858 C340.67 858.99 340.34 859.98 340 861 C339.34 861 338.68 861 338 861 C337.773125 861.61875 337.54625 862.2375 337.3125 862.875 C335.61545208 865.62260139 333.97485929 865.93210179 331 867 C330.67 867.66 330.34 868.32 330 869 C329.01 869.33 328.02 869.66 327 870 C326.67 870.66 326.34 871.32 326 872 C323.37383124 873.17486497 320.72955415 874.09014862 318 875 C318 875.66 318 876.32 318 877 C317.13375 877.0928125 317.13375 877.0928125 316.25 877.1875 C313.74842084 877.86390385 313.74842084 877.86390385 312.0625 880.5 C309.59984657 883.48503446 308.63179214 883.27364157 305 884 C304.34 884.825 303.68 885.65 303 886.5 C300.65805074 889.42743658 299.58697572 889.51527355 296 890 C295.67 890.66 295.34 891.32 295 892 C293.35 892 291.7 892 290 892 C290 892.66 290 893.32 290 894 C283.25 898 283.25 898 281 898 C281 898.66 281 899.32 281 900 C280.0409375 900.185625 280.0409375 900.185625 279.0625 900.375 C278.381875 900.58125 277.70125 900.7875 277 901 C276.67 901.66 276.34 902.32 276 903 C274 903.33333333 272 903.66666667 270 904 C269.67 904.66 269.34 905.32 269 906 C267.66666667 906.33333333 266.33333333 906.66666667 265 907 C264.67 907.66 264.34 908.32 264 909 C262.02 909 260.04 909 258 909 C258 909.66 258 910.32 258 911 C255.24921116 911.91692961 253.64051087 912.10886083 250.8125 912.0625 C249.554375 912.041875 248.29625 912.02125 247 912 C246.67 912.99 246.34 913.98 246 915 C245.34 915 244.68 915 244 915 C244 915.66 244 916.32 244 917 C242.2984375 917.185625 242.2984375 917.185625 240.5625 917.375 C239.386875 917.58125 238.21125 917.7875 237 918 C236.67 918.66 236.34 919.32 236 920 C233.93734178 920.3911938 231.90556733 920.50674519 229.8125 920.65625 C229.214375 920.7696875 228.61625 920.883125 228 921 C227.67 921.66 227.34 922.32 227 923 C224.15649404 923.39593121 221.3351283 923.50849854 218.46875 923.65625 C217.6540625 923.7696875 216.839375 923.883125 216 924 C215.67 924.66 215.34 925.32 215 926 C213.02015519 926.72433347 211.01416562 927.37743972 209 928 C207.906875 928.515625 206.81375 929.03125 205.6875 929.5625 C198.93869356 932.18777245 191.14669564 931.76448389 184 932 C184 932.66 184 933.32 184 934 C182.329375 934.185625 182.329375 934.185625 180.625 934.375 C176.96896323 934.6465813 176.96896323 934.6465813 175 937 C172.63490639 937.30059943 170.25558119 937.49515012 167.875 937.625 C166.59367188 937.69976563 165.31234375 937.77453125 163.9921875 937.8515625 C163.00476563 937.90054688 162.01734375 937.94953125 161 938 C161 938.66 161 939.32 161 940 C154.73 940.33 148.46 940.66 142 941 C141.67 941.66 141.34 942.32 141 943 C137.56528233 943.33142013 134.17310556 943.46573403 130.7265625 943.56640625 C128.8138921 943.64581314 126.90546809 943.81613904 125 944 C124.67 944.66 124.34 945.32 124 946 C113.77 946 103.54 946 93 946 C93 946.66 93 947.32 93 948 C89.59578995 949.70210503 85.70883854 949.13790828 81.96386719 949.12939453 C81.02711655 949.13114685 80.09036591 949.13289917 79.12522888 949.13470459 C76.01575896 949.1391203 72.90634554 949.13618514 69.796875 949.1328125 C67.63934315 949.13348585 65.48181137 949.13445613 63.32427979 949.13571167 C58.79479248 949.13718845 54.26532486 949.13503556 49.73583984 949.13037109 C43.93416136 949.12468745 38.13252927 949.12794427 32.33085251 949.13394356 C27.87157849 949.13756134 23.41231543 949.13640474 18.95304108 949.13381577 C16.81444544 949.13314916 14.67584881 949.13396562 12.53725433 949.13629532 C9.54271322 949.13884026 6.54824653 949.13495461 3.55371094 949.12939453 C2.67140305 949.13141876 1.78909515 949.13344299 0.88005066 949.13552856 C-3.52781507 949.12039899 -7.6602352 948.88842324 -12 948 C-12 947.34 -12 946.68 -12 946 C-19.26 946 -26.52 946 -34 946 C-34.33 945.34 -34.66 944.68 -35 944 C-42.26 943.67 -49.52 943.34 -57 943 C-57.33 942.34 -57.66 941.68 -58 941 C-64.93 940.67 -71.86 940.34 -79 940 C-79 939.34 -79 938.68 -79 938 C-83.95 937.67 -88.9 937.34 -94 937 C-94 936.34 -94 935.68 -94 935 C-98.62 934.67 -103.24 934.34 -108 934 C-108 933.34 -108 932.68 -108 932 C-109.7634375 932.061875 -109.7634375 932.061875 -111.5625 932.125 C-115.67598941 932.13220401 -119.04590199 931.15895976 -123 930 C-125.62041996 929.71147714 -128.232088 929.5049257 -130.86328125 929.34375 C-133 929 -133 929 -135 927 C-137.5963192 926.61984012 -140.1662335 926.49404686 -142.78515625 926.34375 C-143.51605469 926.2303125 -144.24695313 926.116875 -145 926 C-145.33 925.34 -145.66 924.68 -146 924 C-148.35599235 923.53248212 -148.35599235 923.53248212 -151.0625 923.375 C-151.98160156 923.30023437 -152.90070313 923.22546875 -153.84765625 923.1484375 C-154.55792969 923.09945312 -155.26820313 923.05046875 -156 923 C-156 922.34 -156 921.68 -156 921 C-156.85464844 920.95101562 -157.70929688 920.90203125 -158.58984375 920.8515625 C-159.69457031 920.77679687 -160.79929687 920.70203125 -161.9375 920.625 C-163.59072266 920.52058594 -163.59072266 920.52058594 -165.27734375 920.4140625 C-166.17582031 920.27742188 -167.07429687 920.14078125 -168 920 C-168.33 919.34 -168.66 918.68 -169 918 C-171.52733235 917.34444881 -171.52733235 917.34444881 -174 917 C-174 916.34 -174 915.68 -174 915 C-175.299375 914.855625 -176.59875 914.71125 -177.9375 914.5625 C-181.875 914.125 -181.875 914.125 -183 913 C-184.84599688 912.60545777 -186.70225822 912.25823134 -188.5625 911.9375 C-189.57441406 911.76089844 -190.58632813 911.58429687 -191.62890625 911.40234375 C-192.41136719 911.26957031 -193.19382812 911.13679688 -194 911 C-194 910.34 -194 909.68 -194 909 C-196.64 909 -199.28 909 -202 909 C-202.33 908.01 -202.66 907.02 -203 906 C-204.65 906 -206.3 906 -208 906 C-208.33 905.34 -208.66 904.68 -209 904 C-211.29104269 903.60794432 -211.29104269 903.60794432 -213.9375 903.5 C-218.77862595 903.22137405 -218.77862595 903.22137405 -221 901 C-221.845625 900.835 -222.69125 900.67 -223.5625 900.5 C-224.366875 900.335 -225.17125 900.17 -226 900 C-226.33 899.34 -226.66 898.68 -227 898 C-227.99 897.67 -228.98 897.34 -230 897 C-230 896.34 -230 895.68 -230 895 C-232.97 894.67 -235.94 894.34 -239 894 C-239 893.34 -239 892.68 -239 892 C-240.175625 892.061875 -240.175625 892.061875 -241.375 892.125 C-244 892 -244 892 -246 890 C-246.680625 889.835 -247.36125 889.67 -248.0625 889.5 C-248.701875 889.335 -249.34125 889.17 -250 889 C-250.33 888.34 -250.66 887.68 -251 887 C-251.825 886.835 -252.65 886.67 -253.5 886.5 C-254.325 886.335 -255.15 886.17 -256 886 C-256.33 885.34 -256.66 884.68 -257 884 C-258.86492402 883.61004898 -258.86492402 883.61004898 -261 883.5 C-263.1875 883.34375 -263.1875 883.34375 -265 883 C-265.33 882.34 -265.66 881.68 -266 881 C-267.65438613 880.30341637 -269.32254318 879.63903117 -271 879 C-271.99 878.34 -272.98 877.68 -274 877 C-274 876.34 -274 875.68 -274 875 C-274.70125 874.87625 -275.4025 874.7525 -276.125 874.625 C-279.19635318 873.95731453 -282.0674358 873.13303617 -285 872 C-285.33 871.34 -285.66 870.68 -286 870 C-288.02463255 869.34786708 -288.02463255 869.34786708 -290 869 C-290 868.34 -290 867.68 -290 867 C-290.969375 866.87625 -291.93875 866.7525 -292.9375 866.625 C-293.948125 866.41875 -294.95875 866.2125 -296 866 C-296.33 865.34 -296.66 864.68 -297 864 C-298.64991582 863.29289322 -300.3207762 862.63437344 -302 862 C-304 861 -306 860 -308 859 C-309.65910004 858.31471955 -311.32332564 857.64108137 -313 857 C-313 856.34 -313 855.68 -313 855 C-313.86625 854.938125 -314.7325 854.87625 -315.625 854.8125 C-320.00634099 853.75773272 -321.75698868 852.09217359 -325 849 C-325.33 848.34 -325.66 847.68 -326 847 C-327.64034193 846.27095914 -329.31301918 845.61344757 -331 845 C-332.66666667 844.33333333 -334.33333333 843.66666667 -336 843 C-336 842.34 -336 841.68 -336 841 C-338.93720508 839.47700477 -341.9168649 838.19899698 -345 837 C-345 836.34 -345 835.68 -345 835 C-345.598125 834.71125 -346.19625 834.4225 -346.8125 834.125 C-349 833 -349 833 -352 831 C-352.34057617 829.12060547 -352.34057617 829.12060547 -352.29296875 826.8671875 C-352.28330078 826.06152344 -352.27363281 825.25585938 -352.26367188 824.42578125 C-352.23853516 823.58402344 -352.21339844 822.74226563 -352.1875 821.875 C-352.17396484 821.02550781 -352.16042969 820.17601562 -352.14648438 819.30078125 C-352.11108219 817.20025163 -352.05727401 815.10004707 -352 813 C-351.01 812.67 -350.02 812.34 -349 812 C-349 810.35 -349 808.7 -349 807 C-347.68 806.67 -346.36 806.34 -345 806 C-344.87625 804.865625 -344.7525 803.73125 -344.625 802.5625 C-344.41875 801.386875 -344.2125 800.21125 -344 799 C-343.34 798.67 -342.68 798.34 -342 798 C-341.8453125 796.39125 -341.8453125 796.39125 -341.6875 794.75 C-340.85328004 790.19970932 -339.19388149 789.19388149 -336 786 C-335.11472891 782.31558496 -335.11472891 782.31558496 -335 779 C-334.01 778.67 -333.02 778.34 -332 778 C-332.0825 777.2575 -332.165 776.515 -332.25 775.75 C-332 773 -332 773 -330.125 770.6875 C-328 769 -328 769 -326 769 C-326.33 767.68 -326.66 766.36 -327 765 C-326.34 764.67 -325.68 764.34 -325 764 C-324.29289322 762.35008418 -323.63437344 760.6792238 -323 759 C-321.47823445 755.82965511 -319.95235494 752.92853241 -318 750 C-317.67 749.34 -317.34 748.68 -317 748 C-315.5625 745.875 -315.5625 745.875 -314 744 C-313.34 744 -312.68 744 -312 744 C-312 742.35 -312 740.7 -312 739 C-311.01 738.67 -310.02 738.34 -309 738 C-309.33 736.68 -309.66 735.36 -310 734 C-308.68 733.34 -307.36 732.68 -306 732 C-306.33 730.68 -306.66 729.36 -307 728 C-306.01 727.34 -305.02 726.68 -304 726 C-303.62690101 724.34178227 -303.29299023 722.67422986 -303 721 C-302.34 720.34 -301.68 719.68 -301 719 C-299.40221239 716.10400996 -298.19768722 713.07976714 -297 710 C-296.34 710 -295.68 710 -295 710 C-294.896875 709.071875 -294.79375 708.14375 -294.6875 707.1875 C-293.99468505 703.97535795 -293.6120831 702.88069983 -291 701 C-290.34 701 -289.68 701 -289 701 C-289.33 699.35 -289.66 697.7 -290 696 C-288.68 695.67 -287.36 695.34 -286 695 C-286.33 693.68 -286.66 692.36 -287 691 C-286.34 690.67 -285.68 690.34 -285 690 C-284.30341637 688.34561387 -283.63903117 686.67745682 -283 685 C-282.34 684.01 -281.68 683.02 -281 682 C-279.44278251 679.0802172 -278.19885739 676.08277614 -277 673 C-276.34 673 -275.68 673 -275 673 C-272.78600697 669.20458337 -271.99019802 665.24370579 -271 661 C-270.34 661 -269.68 661 -269 661 C-269.33 659.68 -269.66 658.36 -270 657 C-269.38125 656.79375 -268.7625 656.5875 -268.125 656.375 C-265.15227549 654.45147237 -264.96845976 652.32043345 -264 649 C-263.34 648.34 -262.68 647.68 -262 647 C-261.61596877 645.05848638 -261.61596877 645.05848638 -261.5 642.9375 C-261.335 641.638125 -261.17 640.33875 -261 639 C-260.34 638.67 -259.68 638.34 -259 638 C-258.34444881 635.47266765 -258.34444881 635.47266765 -258 633 C-251.76817361 631.96136227 -246.25307239 632.16711126 -240 633 C-240 633.66 -240 634.32 -240 635 C-238.8553125 634.9071875 -238.8553125 634.9071875 -237.6875 634.8125 C-235 635 -235 635 -233.1875 636.375 C-232 638 -232 638 -232 640 C-231.34 640 -230.68 640 -230 640 C-230 640.99 -230 641.98 -230 643 C-229.01 643.33 -228.02 643.66 -227 644 C-227 644.66 -227 645.32 -227 646 C-225.948125 646.2475 -224.89625 646.495 -223.8125 646.75 C-220.1779442 647.78212538 -217.77322631 649.38990465 -215 652 C-214.67 652.66 -214.34 653.32 -214 654 C-211.97536745 654.65213292 -211.97536745 654.65213292 -210 655 C-210 655.66 -210 656.32 -210 657 C-209.360625 657.12375 -208.72125 657.2475 -208.0625 657.375 C-207.381875 657.58125 -206.70125 657.7875 -206 658 C-205.67 658.66 -205.34 659.32 -205 660 C-202.97536745 660.65213292 -202.97536745 660.65213292 -201 661 C-201 661.66 -201 662.32 -201 663 C-199.02 663.33 -197.04 663.66 -195 664 C-195 664.66 -195 665.32 -195 666 C-193.02 666.33 -191.04 666.66 -189 667 C-189 667.66 -189 668.32 -189 669 C-188.34 669 -187.68 669 -187 669 C-186.67 669.66 -186.34 670.32 -186 671 C-185.175 671.165 -184.35 671.33 -183.5 671.5 C-182.675 671.665 -181.85 671.83 -181 672 C-180.67 672.66 -180.34 673.32 -180 674 C-179.175 674.165 -178.35 674.33 -177.5 674.5 C-176.675 674.665 -175.85 674.83 -175 675 C-174.67 675.66 -174.34 676.32 -174 677 C-171.97536745 677.65213292 -171.97536745 677.65213292 -170 678 C-170 678.66 -170 679.32 -170 680 C-168.02 680.33 -166.04 680.66 -164 681 C-164 681.66 -164 682.32 -164 683 C-162.02 683.33 -160.04 683.66 -158 684 C-158 684.66 -158 685.32 -158 686 C-157.01 686.33 -156.02 686.66 -155 687 C-155 687.66 -155 688.32 -155 689 C-153.6078125 688.938125 -153.6078125 688.938125 -152.1875 688.875 C-149 689 -149 689 -146 691 C-144.88625 691.103125 -143.7725 691.20625 -142.625 691.3125 C-138.21536561 692.14880997 -136.98530578 693.7726424 -134 697 C-131.82653432 697.86119134 -131.82653432 697.86119134 -130 698 C-130 698.66 -130 699.32 -130 700 C-127.03 700.33 -124.06 700.66 -121 701 C-121 701.66 -121 702.32 -121 703 C-119.205625 703.1546875 -119.205625 703.1546875 -117.375 703.3125 C-113.4375824 703.78891352 -110.45859625 705.01130716 -107 707 C-107 707.66 -107 708.32 -107 709 C-106.22914063 708.97679687 -105.45828125 708.95359375 -104.6640625 708.9296875 C-103.15972656 708.90261719 -103.15972656 708.90261719 -101.625 708.875 C-100.62726563 708.85179687 -99.62953125 708.82859375 -98.6015625 708.8046875 C-96 709 -96 709 -94 711 C-93.154375 711.165 -92.30875 711.33 -91.4375 711.5 C-90.633125 711.665 -89.82875 711.83 -89 712 C-88.67 712.66 -88.34 713.32 -88 714 C-87.34 714.165 -86.68 714.33 -86 714.5 C-85.34 714.665 -84.68 714.83 -84 715 C-83.67 715.66 -83.34 716.32 -83 717 C-77.39 717.33 -71.78 717.66 -66 718 C-65.67 718.66 -65.34 719.32 -65 720 C-62.67843403 720.40729228 -60.3431213 720.74438677 -58 721 C-58 721.66 -58 722.32 -58 723 C-54.37 723.33 -50.74 723.66 -47 724 C-47 724.66 -47 725.32 -47 726 C-46.00097656 726.06058594 -45.00195312 726.12117188 -43.97265625 726.18359375 C-42.68230469 726.26738281 -41.39195312 726.35117188 -40.0625 726.4375 C-38.77472656 726.51871094 -37.48695313 726.59992187 -36.16015625 726.68359375 C-33 727 -33 727 -32 728 C-29.30764224 728.23678716 -26.63501844 728.42198025 -23.9375 728.5625 C-23.17888672 728.60568359 -22.42027344 728.64886719 -21.63867188 728.69335938 C-19.75934562 728.79973633 -17.87969756 728.90039934 -16 729 C-15.67 729.99 -15.34 730.98 -15 732 C-11.7 732 -8.4 732 -5 732 C-5 732.66 -5 733.32 -5 734 C12.16 734.33 29.32 734.66 47 735 C47.33 735.66 47.66 736.32 48 737 C59.22 737 70.44 737 82 737 C82.33 736.34 82.66 735.68 83 735 C85.6686062 734.73993649 88.26275714 734.57860091 90.9375 734.5 C96.46983601 734.65548137 96.46983601 734.65548137 101 732 C104.0839836 731.61450205 107.14626626 731.49296797 110.25 731.34375 C113.14115152 731.26814222 113.14115152 731.26814222 115 729 C117.6015625 728.8046875 117.6015625 728.8046875 120.625 728.875 C121.62789062 728.89304687 122.63078125 728.91109375 123.6640625 728.9296875 C124.82035156 728.96449219 124.82035156 728.96449219 126 729 C126 728.34 126 727.68 126 727 C128.64 726.67 131.28 726.34 134 726 C134 725.34 134 724.68 134 724 C134.9590625 723.814375 134.9590625 723.814375 135.9375 723.625 C136.618125 723.41875 137.29875 723.2125 138 723 C138.33 722.34 138.66 721.68 139 721 C140.40947946 720.1594585 141.85288588 719.37511266 143.3125 718.625 C146.1264086 717.12454557 148.03829801 715.96170199 150.3125 713.6875 C150.869375 713.130625 151.42625 712.57375 152 712 C153.32 712 154.64 712 156 712 C156.33 711.01 156.66 710.02 157 709 C158.52851119 707.79670395 160.05705173 706.59344508 161.5859375 705.390625 C163.69924567 703.31234403 164.11165134 700.78349247 165 698 C166.64295195 696.63755204 168.30824337 695.30135125 170 694 C171.52536795 690.18974957 171.1256447 685.99274613 171.09765625 681.953125 C171.0962413 681.18192322 171.09482635 680.41072144 171.09336853 679.6161499 C171.08778534 677.16072662 171.07523595 674.70539558 171.0625 672.25 C171.05748283 670.58203257 171.0529203 668.91406371 171.04882812 667.24609375 C171.03782141 663.16402713 171.02056836 659.08202919 171 655 C170.34 654.67 169.68 654.34 169 654 C169.144375 652.96875 169.28875 651.9375 169.4375 650.875 C168.96858583 646.72176018 168.92619707 646.48414517 165.9375 644.0625 C165.30199219 643.58296875 164.66648437 643.1034375 164.01171875 642.609375 C161.15715719 640.32572576 158.92921109 637.61707949 156.578125 634.83203125 C153.3896097 631.08425043 153.3896097 631.08425043 149 629 C149 628.34 149 627.68 149 627 C147.906875 626.896875 146.81375 626.79375 145.6875 626.6875 C142 626 142 626 140.0625 624.5625 C139 623 139 623 139 621 C138.34 621 137.68 621 137 621 C136.67 620.34 136.34 619.68 136 619 C133.67843403 618.59270772 131.3431213 618.25561323 129 618 C129 617.34 129 616.68 129 616 C127.2984375 615.814375 127.2984375 615.814375 125.5625 615.625 C124.386875 615.41875 123.21125 615.2125 122 615 C121.67 614.34 121.34 613.68 121 613 C118.67843403 612.59270772 116.3431213 612.25561323 114 612 C114 611.34 114 610.68 114 610 C112.700625 609.855625 111.40125 609.71125 110.0625 609.5625 C106.125 609.125 106.125 609.125 105 608 C103.58659906 607.84230651 102.16874478 607.72365444 100.75 607.625 C96.81692968 607.2304404 94.1815665 606.48559883 91 604 C90.67 603.34 90.34 602.68 90 602 C88.845 601.835 87.69 601.67 86.5 601.5 C85.345 601.335 84.19 601.17 83 601 C82.67 600.34 82.34 599.68 82 599 C79.01962537 598.60661452 79.01962537 598.60661452 75.5625 598.5 C69.22158439 598.22158439 69.22158439 598.22158439 67 596 C65.845 595.835 64.69 595.67 63.5 595.5 C60 595 60 595 58 593 C52.74286759 591.19181433 47.57507258 590.45129293 42.0625 589.875 C41.28326172 589.78863281 40.50402344 589.70226563 39.70117188 589.61328125 C37.8013663 589.40348677 35.90075826 589.20098006 34 589 C34 588.34 34 587.68 34 587 C32.329375 587.061875 32.329375 587.061875 30.625 587.125 C27 587 27 587 25 585 C23.05848638 584.61596877 23.05848638 584.61596877 20.9375 584.5 C19.638125 584.335 18.33875 584.17 17 584 C16.67 583.34 16.34 582.68 16 582 C13.67493341 581.60843772 13.67493341 581.60843772 11 581.5 C8.25 581.34375 8.25 581.34375 6 581 C5.67 580.34 5.34 579.68 5 579 C2.44508177 578.60786962 2.44508177 578.60786962 -0.5 578.5 C-3.53125 578.34375 -3.53125 578.34375 -6 578 C-6.33 577.34 -6.66 576.68 -7 576 C-9.02695382 575.60806489 -9.02695382 575.60806489 -11.375 575.5 C-14.89651464 575.27058537 -15.92939296 575.04707136 -19 573 C-21.24645876 572.58256635 -21.24645876 572.58256635 -23.625 572.4375 C-27.90158172 572.09841828 -27.90158172 572.09841828 -29 571 C-31.34723966 570.602507 -33.70328548 570.25631277 -36.0625 569.9375 C-37.35285156 569.76089844 -38.64320313 569.58429687 -39.97265625 569.40234375 C-40.97167969 569.26957031 -41.97070312 569.13679688 -43 569 C-43 568.34 -43 567.68 -43 567 C-45.64 567 -48.28 567 -51 567 C-51.33 566.34 -51.66 565.68 -52 565 C-53.155 564.835 -54.31 564.67 -55.5 564.5 C-56.655 564.335 -57.81 564.17 -59 564 C-59.33 563.34 -59.66 562.68 -60 562 C-63.27555608 561.52998967 -63.27555608 561.52998967 -67.0625 561.375 C-68.35285156 561.30023437 -69.64320313 561.22546875 -70.97265625 561.1484375 C-71.97167969 561.09945312 -72.97070312 561.05046875 -74 561 C-74.33 560.01 -74.66 559.02 -75 558 C-75.804375 557.855625 -76.60875 557.71125 -77.4375 557.5625 C-80 557 -80 557 -81 556 C-83.32817964 555.63239269 -85.6618385 555.29758419 -88 555 C-88 554.34 -88 553.68 -88 553 C-91.96 552.67 -95.92 552.34 -100 552 C-100 551.34 -100 550.68 -100 550 C-101.65 550 -103.3 550 -105 550 C-105.33 549.34 -105.66 548.68 -106 548 C-107.155 547.835 -108.31 547.67 -109.5 547.5 C-110.655 547.335 -111.81 547.17 -113 547 C-113.33 546.34 -113.66 545.68 -114 545 C-116.52092173 544.60741061 -116.52092173 544.60741061 -119.4375 544.5 C-124.77854195 544.22145805 -124.77854195 544.22145805 -127 542 C-127.680625 541.835 -128.36125 541.67 -129.0625 541.5 C-129.701875 541.335 -130.34125 541.17 -131 541 C-131.33 540.34 -131.66 539.68 -132 539 C-134.02463255 538.34786708 -134.02463255 538.34786708 -136 538 C-136 537.34 -136 536.68 -136 536 C-138.97 535.67 -141.94 535.34 -145 535 C-145 534.34 -145 533.68 -145 533 C-146.98 532.67 -148.96 532.34 -151 532 C-151 531.34 -151 530.68 -151 530 C-152.051875 529.814375 -152.051875 529.814375 -153.125 529.625 C-156.19635318 528.95731453 -159.0674358 528.13303617 -162 527 C-162.33 526.34 -162.66 525.68 -163 525 C-164.258125 524.896875 -165.51625 524.79375 -166.8125 524.6875 C-170.21194717 524.35540481 -170.72846097 524.3034848 -173.125 521.625 C-173.74375 520.75875 -174.3625 519.8925 -175 519 C-179.26006682 516.34929176 -183.03209582 515.49679042 -188 515 C-188 514.34 -188 513.68 -188 513 C-190.63591539 511.41845077 -192.31324972 510.97152275 -195.4375 510.6875 C-199.79417795 509.84673759 -201.04662767 508.19283496 -204 505 C-204.680625 504.835 -205.36125 504.67 -206.0625 504.5 C-208 504 -208 504 -209.9375 501.5625 C-212.21001978 498.73906633 -213.63162702 498.12279099 -217 497 C-217.99 496.34 -218.98 495.68 -220 495 C-220 494.34 -220 493.68 -220 493 C-220.7425 492.9175 -221.485 492.835 -222.25 492.75 C-225.56035658 491.84717548 -226.64334649 490.43029893 -229 488 C-229.78375 487.690625 -230.5675 487.38125 -231.375 487.0625 C-235.310438 485.46958462 -239.06222096 482.87555808 -241 479 C-241.7425 478.71125 -242.485 478.4225 -243.25 478.125 C-248.48901972 475.98176466 -251.60909819 472.40817235 -255 468 C-257.18740495 465.44802756 -258.67421255 464.57341163 -262 464 C-262 463.34 -262 462.68 -262 462 C-262.928125 461.6596875 -262.928125 461.6596875 -263.875 461.3125 C-266.64128237 459.60391383 -266.90241056 458.00007779 -268 455 C-268.98095748 453.98131338 -269.97702078 452.97648017 -271 452 C-271 451.34 -271 450.68 -271 450 C-271.66 450 -272.32 450 -273 450 C-273.33 449.34 -273.66 448.68 -274 448 C-274.99 447.67 -275.98 447.34 -277 447 C-281 441.62857143 -281 441.62857143 -281 439 C-282.28676746 437.78216651 -283.62963523 436.6229378 -285 435.5 C-286.37036477 434.3770622 -287.71323254 433.21783349 -289 432 C-289 431.34 -289 430.68 -289 430 C-289.66 430 -290.32 430 -291 430 C-291.33 428.02 -291.66 426.04 -292 424 C-292.99 423.67 -293.98 423.34 -295 423 C-295 421.35 -295 419.7 -295 418 C-295.99 418 -296.98 418 -298 418 C-298.268125 417.071875 -298.53625 416.14375 -298.8125 415.1875 C-299.93710035 412.1688359 -300.70706573 411.0844857 -303 409 C-303 408.34 -303 407.68 -303 407 C-304.32 406.67 -305.64 406.34 -307 406 C-307.22786458 403.94921875 -307.45572917 401.8984375 -307.68359375 399.84765625 C-307.81886614 397.98859771 -307.81886614 397.98859771 -309 397 C-309.04092937 394.66702567 -309.04241723 392.33294775 -309 390 C-309.99 389.67 -310.98 389.34 -312 389 C-312 387.35 -312 385.7 -312 384 C-312.99 384 -313.98 384 -315 384 C-315.1953125 381.98177083 -315.390625 379.96354167 -315.5859375 377.9453125 C-315.86374749 375.77331755 -315.86374749 375.77331755 -318 374 C-318.1953125 370.9609375 -318.1953125 370.9609375 -318.125 367.375 C-318.10695313 366.18648437 -318.08890625 364.99796875 -318.0703125 363.7734375 C-318.04710937 362.85820313 -318.02390625 361.94296875 -318 361 C-318.99 360.67 -319.98 360.34 -321 360 C-321 356.7 -321 353.4 -321 350 C-321.99 349.67 -322.98 349.34 -324 349 C-324.01981934 348.44538086 -324.03963867 347.89076172 -324.06005859 347.31933594 C-324.15557651 344.79576307 -324.26514567 342.27298776 -324.375 339.75 C-324.4059375 338.87730469 -324.436875 338.00460937 -324.46875 337.10546875 C-324.50742187 336.26113281 -324.54609375 335.41679688 -324.5859375 334.546875 C-324.6173584 333.77182617 -324.6487793 332.99677734 -324.68115234 332.19824219 C-324.86649614 329.98568595 -324.86649614 329.98568595 -326.00474548 328.22431946 C-327.2603226 325.41819845 -327.24719493 323.28411117 -327.24291992 320.21264648 C-327.24599655 319.0472081 -327.24907318 317.88176971 -327.25224304 316.68101501 C-327.24505753 315.423741 -327.23787201 314.16646698 -327.23046875 312.87109375 C-327.23001053 311.57107925 -327.22955231 310.27106476 -327.2290802 308.93165588 C-327.2275168 306.1769578 -327.21924541 303.42238991 -327.20581055 300.66772461 C-327.18893825 297.1668743 -327.18499313 293.66616845 -327.18575573 290.16528225 C-327.18541511 286.79636739 -327.17654988 283.42749807 -327.16796875 280.05859375 C-327.16685593 278.81548935 -327.1657431 277.57238495 -327.16459656 276.29161072 C-327.05588027 256.05588027 -327.05588027 256.05588027 -325 254 C-324.71681146 251.15912448 -324.55149787 248.31834785 -324.37890625 245.46875 C-324.25386719 244.6540625 -324.12882812 243.839375 -324 243 C-323.34 242.67 -322.68 242.34 -322 242 C-321.60843772 239.67493341 -321.60843772 239.67493341 -321.5 237 C-321.34375 234.25 -321.34375 234.25 -321 232 C-320.34 231.67 -319.68 231.34 -319 231 C-318.60661452 228.01962537 -318.60661452 228.01962537 -318.5 224.5625 C-318.22158439 218.22158439 -318.22158439 218.22158439 -316 216 C-315.32707499 214.03309626 -315.32707499 214.03309626 -314.875 211.875 C-314.58625 210.59625 -314.2975 209.3175 -314 208 C-313.34 208 -312.68 208 -312 208 C-312.04125 206.88625 -312.0825 205.7725 -312.125 204.625 C-312 201 -312 201 -310 199 C-309.835 198.175 -309.67 197.35 -309.5 196.5 C-309 194 -309 194 -307 192 C-307.020625 191.030625 -307.04125 190.06125 -307.0625 189.0625 C-307 186 -307 186 -305.5625 184.3125 C-305.046875 183.879375 -304.53125 183.44625 -304 183 C-303.67 182.01 -303.34 181.02 -303 180 C-302.34 180 -301.68 180 -301 180 C-301 178.35 -301 176.7 -301 175 C-300.34 174.67 -299.68 174.34 -299 174 C-298.8453125 172.39125 -298.8453125 172.39125 -298.6875 170.75 C-297.86616625 166.26999773 -296.49680486 164.81450147 -293 162 C-292.34 162 -291.68 162 -291 162 C-290.8453125 160.3603125 -290.8453125 160.3603125 -290.6875 158.6875 C-289.988068 154.93600108 -289.74005005 154.30164205 -287 152 C-286.71125 151.401875 -286.4225 150.80375 -286.125 150.1875 C-284.49256997 147.01333049 -282.40381079 144.64419187 -280 142 C-279.34 142 -278.68 142 -278 142 C-278 140.35 -278 138.7 -278 137 C-277.01 137 -276.02 137 -275 137 C-275 136.01 -275 135.02 -275 134 C-274.01 134 -273.02 134 -272 134 C-271.67 133.01 -271.34 132.02 -271 131 C-270.34 131 -269.68 131 -269 131 C-269.268125 130.443125 -269.53625 129.88625 -269.8125 129.3125 C-270 127 -270 127 -267.6875 124.25 C-265 122 -265 122 -263 122 C-263 121.34 -263 120.68 -263 120 C-261.33784732 118.66104368 -259.67036393 117.32869858 -258 116 C-257.34 115.175 -256.68 114.35 -256 113.5 C-253.90532454 110.88165568 -251.62909541 109.06064235 -249 107 C-248.67 106.34 -248.34 105.68 -248 105 C-247.01 105 -246.02 105 -245 105 C-245 104.01 -245 103.02 -245 102 C-244.01 102 -243.02 102 -242 102 C-241.505 100.515 -241.505 100.515 -241 99 C-240.34 99 -239.68 99 -239 99 C-238.505 97.515 -238.505 97.515 -238 96 C-237.34 96 -236.68 96 -236 96 C-236 95.34 -236 94.68 -236 94 C-235.443125 93.95875 -234.88625 93.9175 -234.3125 93.875 C-230.74324824 92.52447231 -229.20130216 90.03422731 -227 87 C-226.814375 85.9171875 -226.814375 85.9171875 -226.625 84.8125 C-226 83 -226 83 -222.625 81.3125 C-220.42571835 80.51620837 -218.21897006 79.73965669 -216 79 C-216 78.34 -216 77.68 -216 77 C-213.525 76.505 -213.525 76.505 -211 76 C-211 75.34 -211 74.68 -211 74 C-210.34 74 -209.68 74 -209 74 C-209 73.01 -209 72.02 -209 71 C-208.01 71 -207.02 71 -206 71 C-206 70.01 -206 69.02 -206 68 C-205.030625 67.87625 -204.06125 67.7525 -203.0625 67.625 C-201.5465625 67.315625 -201.5465625 67.315625 -200 67 C-199.67 66.34 -199.34 65.68 -199 65 C-197.35 65 -195.7 65 -194 65 C-193.67 64.01 -193.34 63.02 -193 62 C-192.34 62 -191.68 62 -191 62 C-190.67 61.01 -190.34 60.02 -190 59 C-189.34 59 -188.68 59 -188 59 C-188 58.34 -188 57.68 -188 57 C-185.03 56.505 -185.03 56.505 -182 56 C-182 55.34 -182 54.68 -182 54 C-181.195625 53.87625 -180.39125 53.7525 -179.5625 53.625 C-178.716875 53.41875 -177.87125 53.2125 -177 53 C-176.67 52.34 -176.34 51.68 -176 51 C-174.66666667 50.66666667 -173.33333333 50.33333333 -172 50 C-171.67 49.34 -171.34 48.68 -171 48 C-169.01276732 47.29618843 -167.01222047 46.6288189 -165 46 C-164.67 45.67 -164.34 45.34 -164 45 C-162.33382885 44.95936168 -160.66611905 44.957279 -159 45 C-159 44.34 -159 43.68 -159 43 C-156.525 42.505 -156.525 42.505 -154 42 C-154 41.34 -154 40.68 -154 40 C-151.03 39.505 -151.03 39.505 -148 39 C-148 38.34 -148 37.68 -148 37 C-143.545 36.505 -143.545 36.505 -139 36 C-139 35.34 -139 34.68 -139 34 C-136.42509258 32.97003703 -133.85660978 31.9478581 -131.25 31 C-128.84296517 30.21568639 -128.84296517 30.21568639 -128 28 C-125.56640625 27.65625 -125.56640625 27.65625 -122.5625 27.5 C-118.27670771 27.45324169 -118.27670771 27.45324169 -115 25 C-113.68 25 -112.36 25 -111 25 C-111 24.34 -111 23.68 -111 23 C-110.195625 22.690625 -109.39125 22.38125 -108.5625 22.0625 C-106.10919595 21.23664655 -106.10919595 21.23664655 -105 20 C-102.45243896 19.71693766 -99.90489978 19.55184214 -97.34765625 19.37890625 C-94.81487227 19.20514276 -94.81487227 19.20514276 -93 17 C-89.9160164 16.61450205 -86.85373374 16.49296797 -83.75 16.34375 C-80.85884848 16.26814222 -80.85884848 16.26814222 -79 14 C-76.4036808 13.61984012 -73.8337665 13.49404686 -71.21484375 13.34375 C-70.11849609 13.17359375 -70.11849609 13.17359375 -69 13 C-68.67 12.34 -68.34 11.68 -68 11 C-65.56640625 10.65625 -65.56640625 10.65625 -62.5625 10.5 C-58.27670771 10.45324169 -58.27670771 10.45324169 -55 8 C-52.53831437 7.74363511 -50.15516887 7.57998164 -47.6875 7.5 C-42.89930845 7.31241169 -39.39166577 6.82926759 -35 5 C-32.92391622 4.74444146 -30.8382586 4.55837211 -28.75 4.4375 C-25.05896881 4.52753992 -25.05896881 4.52753992 -22 3 C-20.36743242 2.84285346 -18.72864662 2.74914586 -17.08984375 2.68359375 C-16.10048828 2.64169922 -15.11113281 2.59980469 -14.09179688 2.55664062 C-13.05087891 2.51732422 -12.00996094 2.47800781 -10.9375 2.4375 C-9.89271484 2.39431641 -8.84792969 2.35113281 -7.77148438 2.30664062 C-5.18113116 2.20018775 -2.59067814 2.0981724 0 2 C0 1.34 0 0.68 0 0 Z " fill="#74B13A" transform="translate(504,463)"/>
<path d="M0 0 C147.51 0 295.02 0 447 0 C447 0.66 447 1.32 447 2 C462.84 2.495 462.84 2.495 479 3 C479 3.66 479 4.32 479 5 C482.3 5 485.6 5 489 5 C489.33 5.66 489.66 6.32 490 7 C492.54941373 7.31241371 495.00361513 7.51303421 497.5625 7.625 C498.27341797 7.66367187 498.98433594 7.70234375 499.71679688 7.7421875 C501.47742425 7.83671783 503.23867728 7.91945817 505 8 C505 8.66 505 9.32 505 10 C505.56847656 9.98839844 506.13695312 9.97679687 506.72265625 9.96484375 C511.60234647 9.90781899 516.19878078 10.0997714 521 11 C521.33 11.33 521.66 11.66 522 12 C524.28684338 12.2819396 526.57363273 12.44777005 528.87109375 12.62109375 C531 13 531 13 533 15 C534.98821313 15.39764263 536.98944339 15.73775349 539 16 C539 16.66 539 17.32 539 18 C540.26457031 17.96519531 540.26457031 17.96519531 541.5546875 17.9296875 C543.19824219 17.90261719 543.19824219 17.90261719 544.875 17.875 C545.96554687 17.85179687 547.05609375 17.82859375 548.1796875 17.8046875 C551 18 551 18 553 20 C554.0725 20.12375 555.145 20.2475 556.25 20.375 C560 21 560 21 562.875 23 C566.47412692 25.30344123 568.86827809 25.54179461 573.046875 25.7265625 C575 26 575 26 577 28 C577.845625 28.165 578.69125 28.33 579.5625 28.5 C580.366875 28.665 581.17125 28.83 582 29 C582.33 29.66 582.66 30.32 583 31 C585.02463255 31.65213292 585.02463255 31.65213292 587 32 C587 32.66 587 33.32 587 34 C588.65 34 590.3 34 592 34 C592.33 34.66 592.66 35.32 593 36 C594.86157105 36.27874834 594.86157105 36.27874834 597.0625 36.3125 C603.19482365 36.84148639 607.6992667 39.6992667 612 44 C614.06874034 44.6425235 614.06874034 44.6425235 616 45 C616 45.66 616 46.32 616 47 C617.65 47 619.3 47 621 47 C621.33 47.66 621.66 48.32 622 49 C624.02463255 49.65213292 624.02463255 49.65213292 626 50 C626 50.66 626 51.32 626 52 C626.845625 52.2475 627.69125 52.495 628.5625 52.75 C632.38427474 54.13973627 635.51868063 55.91120838 639 58 C639 58.66 639 59.32 639 60 C641.12329518 61.10096787 643.18311461 62.06573345 645.4375 62.875 C648.41052204 64.18022919 650.50092883 65.93826629 653 68 C653.928125 68.53625 654.85625 69.0725 655.8125 69.625 C656.534375 70.07875 657.25625 70.5325 658 71 C658 71.66 658 72.32 658 73 C660.475 73.495 660.475 73.495 663 74 C663 74.66 663 75.32 663 76 C663.99 76 664.98 76 666 76 C666.33 76.66 666.66 77.32 667 78 C667.804375 78.28875 668.60875 78.5775 669.4375 78.875 C672.4979705 80.21862119 672.63617482 81.09050628 674 84 C675.81601365 85.20003343 675.81601365 85.20003343 678 86 C678.9075 86.37125 679.815 86.7425 680.75 87.125 C681.4925 87.41375 682.235 87.7025 683 88 C683 88.66 683 89.32 683 90 C683.59554687 90.25652344 684.19109375 90.51304687 684.8046875 90.77734375 C687.19696371 92.10969687 688.42728199 93.43368605 690.125 95.5625 C692.20903634 98.21025666 692.20903634 98.21025666 695 100 C695 100.66 695 101.32 695 102 C695.66 102 696.32 102 697 102 C698.35386936 103.65002828 699.68678142 105.3174387 701 107 C701.66 107.33 702.32 107.66 703 108 C703 108.66 703 109.32 703 110 C703.66 110 704.32 110 705 110 C705.185625 110.70125 705.37125 111.4025 705.5625 112.125 C707.29199653 115.58399306 709.41602007 117.13326399 712.390625 119.51171875 C714.44399917 121.41059147 715.10445877 123.38800474 716 126 C716.99 126.33 717.98 126.66 719 127 C719 127.66 719 128.32 719 129 C719.66 129 720.32 129 721 129 C721 129.66 721 130.32 721 131 C721.66 131 722.32 131 723 131 C723.20625 131.721875 723.4125 132.44375 723.625 133.1875 C724.8782745 136.26113352 724.8782745 136.26113352 728.0625 138.4375 C731 141 731 141 731.875 144.3125 C731.936875 145.6428125 731.936875 145.6428125 732 147 C732.66 147 733.32 147 734 147 C735.37073786 148.63604196 736.70055256 150.30678061 738 152 C738.495 152.45503906 738.99 152.91007813 739.5 153.37890625 C741.29968985 155.32388356 742.07624542 157.17333881 743.0625 159.625 C744.24652127 163.01267992 744.24652127 163.01267992 747 165 C747.5625 166.75 747.5625 166.75 748 169 C748.185625 169.9075 748.37125 170.815 748.5625 171.75 C748.706875 172.4925 748.85125 173.235 749 174 C749.66 174 750.32 174 751 174 C752.5625 175.0625 752.5625 175.0625 754 177 C754.36141955 179.32914823 754.69699525 181.66253478 755 184 C755.66 184.33 756.32 184.66 757 185 C757.70626239 186.98636298 758.36893571 188.98848259 759 191 C759.92569783 192.9474224 760.90944099 194.8386803 761.96484375 196.71875 C764.67278772 201.6778763 765.95097654 206.5692799 767.22265625 212.0546875 C768.12764672 215.48364635 769.44068301 218.50940144 770.94921875 221.70703125 C772.16139751 224.35219456 773.22158513 227.02815287 774.25 229.75 C774.58515625 230.63171875 774.9203125 231.5134375 775.265625 232.421875 C776.02190251 235.07689179 776.13824389 237.2548714 776 240 C776.66 240 777.32 240 778 240 C778 242.64 778 245.28 778 248 C778.99 248.33 779.98 248.66 781 249 C781.04898438 249.81984375 781.09796875 250.6396875 781.1484375 251.484375 C781.22320313 252.56203125 781.29796875 253.6396875 781.375 254.75 C781.44460938 255.81734375 781.51421875 256.8846875 781.5859375 257.984375 C781.81194362 260.90591343 781.81194362 260.90591343 783.00219727 262.89941406 C784.13711058 265.28864679 784.29553921 266.99156666 784.37890625 269.625 C784.43014648 270.93210937 784.43014648 270.93210937 784.48242188 272.265625 C784.50884766 273.16796875 784.53527344 274.0703125 784.5625 275 C784.62265305 276.79179289 784.68632642 278.58347185 784.75390625 280.375 C784.77783447 281.16648437 784.8017627 281.95796875 784.82641602 282.7734375 C784.99661063 284.95652448 785.442358 286.88817368 786 289 C786.06548492 290.58211573 786.08578381 292.16670081 786.0625 293.75 C786.05347656 294.54921875 786.04445313 295.3484375 786.03515625 296.171875 C786.01775391 297.07679688 786.01775391 297.07679688 786 298 C786.99 298.33 787.98 298.66 789 299 C789 324.08 789 349.16 789 375 C788.01 375.33 787.02 375.66 786 376 C786.01160156 377.07121094 786.02320313 378.14242188 786.03515625 379.24609375 C786.04453299 380.64322743 786.05363331 382.04036299 786.0625 383.4375 C786.07087891 384.14455078 786.07925781 384.85160156 786.08789062 385.58007812 C786.09653588 387.38693559 786.05220011 389.19387603 786 391 C785.67 391.33 785.34 391.66 785 392 C784.76227626 395.79603313 784.60360961 399.58556196 784.48242188 403.38671875 C784.44826172 404.18464844 784.41410156 404.98257812 784.37890625 405.8046875 C784.34132202 406.90272705 784.34132202 406.90272705 784.30297852 408.02294922 C784 410 784 410 782 413 C781.54398739 415.50896686 781.54398739 415.50896686 781.375 418.1875 C781.30023437 419.08855469 781.22546875 419.98960937 781.1484375 420.91796875 C781.09945312 421.60503906 781.05046875 422.29210937 781 423 C780.01 423.33 779.02 423.66 778 424 C778.0309375 425.4540625 778.0309375 425.4540625 778.0625 426.9375 C778 430 778 430 777 431 C776.63128912 432.65919896 776.30404678 434.32774271 776 436 C775.11111111 440.88888889 775.11111111 440.88888889 774 442 C773.76924918 443.34747084 773.58846937 444.70377565 773.4375 446.0625 C773.293125 447.361875 773.14875 448.66125 773 450 C772.01 450 771.02 450 770 450 C770.0309375 451.2065625 770.0309375 451.2065625 770.0625 452.4375 C770 455 770 455 769 456 C768.76807135 457.51469448 768.58784762 459.03754562 768.4375 460.5625 C768.35371094 461.38878906 768.26992187 462.21507812 768.18359375 463.06640625 C768.12300781 463.70449219 768.06242187 464.34257813 768 465 C767.01 465.33 766.02 465.66 765 466 C765 467.65 765 469.3 765 471 C764.01 471.495 764.01 471.495 763 472 C761.86897474 474.34038186 761.86897474 474.34038186 760.875 477.0625 C760.52179687 477.98160156 760.16859375 478.90070313 759.8046875 479.84765625 C759.53914063 480.55792969 759.27359375 481.26820313 759 482 C758.34 482 757.68 482 757 482 C757.061875 483.175625 757.061875 483.175625 757.125 484.375 C757 487 757 487 755 489 C755 489.66 755 490.32 755 491 C754.195625 491.556875 753.39125 492.11375 752.5625 492.6875 C749.27420613 495.65498471 749.24914017 497.68157031 749 502 C748.01 502.33 747.02 502.66 746 503 C745.67 503.99 745.34 504.98 745 506 C744.34 506 743.68 506 743 506 C743.33 507.32 743.66 508.64 744 510 C743.01 510.495 743.01 510.495 742 511 C741.34444881 513.52733235 741.34444881 513.52733235 741 516 C739.68 516.33 738.36 516.66 737 517 C737 517.66 737 518.32 737 519 C736.34 519 735.68 519 735 519 C734.67 519.99 734.34 520.98 734 522 C733.34 522 732.68 522 732 522 C731.731875 523.093125 731.46375 524.18625 731.1875 525.3125 C729.63494968 530.13357731 729.63494968 530.13357731 727 532 C726.34 532 725.68 532 725 532 C724.773125 532.886875 724.54625 533.77375 724.3125 534.6875 C722.80336427 538.49627112 720.98021753 540.23265515 718 543 C717.38125 543.804375 716.7625 544.60875 716.125 545.4375 C713.81082562 548.22812204 711.29472177 550.39036499 708.48828125 552.66796875 C706.87117455 553.95079945 706.87117455 553.95079945 706 556 C705.34 556 704.68 556 704 556 C704 556.66 704 557.32 704 558 C703.34 558.66 702.68 559.32 702 560 C701.30251417 561.31747324 700.63040043 562.64914193 700 564 C699.34 564 698.68 564 698 564 C698 564.66 698 565.32 698 566 C696.625 567.625 696.625 567.625 695 569 C694.34 569 693.68 569 693 569 C692.67 569.99 692.34 570.98 692 572 C691.34 572 690.68 572 690 572 C690 572.66 690 573.32 690 574 C689.0409375 574.185625 689.0409375 574.185625 688.0625 574.375 C687.381875 574.58125 686.70125 574.7875 686 575 C685.67 575.66 685.34 576.32 685 577 C684.34 577 683.68 577 683 577 C682.67 578.65 682.34 580.3 682 582 C681.1646875 582.0928125 681.1646875 582.0928125 680.3125 582.1875 C677.0716122 583.32619031 675.3687597 585.56890452 673 588 C672.34 588 671.68 588 671 588 C671 588.66 671 589.32 671 590 C670.13375 590.12375 670.13375 590.12375 669.25 590.25 C666.83475587 590.86285107 666.83475587 590.86285107 665.0625 593 C662.69145739 595.29919283 661.22768018 595.64136887 658 596 C658 596.66 658 597.32 658 598 C656.625 599.625 656.625 599.625 655 601 C654.34 601 653.68 601 653 601 C652.67 601.99 652.34 602.98 652 604 C651.34 604 650.68 604 650 604 C650 604.66 650 605.32 650 606 C646.68885166 607.12880057 643.41021743 608.21302675 640 609 C640 609.66 640 610.32 640 611 C638.1015625 612.4375 638.1015625 612.4375 635.625 614 C633.15047838 615.57112484 631.07616959 616.92383041 629 619 C627.824375 619.165 626.64875 619.33 625.4375 619.5 C624.303125 619.665 623.16875 619.83 622 620 C621.67 620.66 621.34 621.32 621 622 C619.109375 622.67578125 619.109375 622.67578125 616.75 623.3125 C613.22347255 624.39159515 612.04864197 624.95019989 609.375 627.6875 C607 630 607 630 603.1875 630.3125 C602.135625 630.209375 601.08375 630.10625 600 630 C600 630.66 600 631.32 600 632 C597.36 632.33 594.72 632.66 592 633 C592 633.66 592 634.32 592 635 C591.34 635 590.68 635 590 635 C590 635.66 590 636.32 590 637 C587.36 637.33 584.72 637.66 582 638 C582 638.66 582 639.32 582 640 C579.03 640.33 576.06 640.66 573 641 C573 641.66 573 642.32 573 643 C570.69 643 568.38 643 566 643 C566 643.66 566 644.32 566 645 C563.36 645.33 560.72 645.66 558 646 C558 646.66 558 647.32 558 648 C556.2984375 648.185625 556.2984375 648.185625 554.5625 648.375 C553.386875 648.58125 552.21125 648.7875 551 649 C550.67 649.66 550.34 650.32 550 651 C545.71 651 541.42 651 537 651 C537 651.66 537 652.32 537 653 C534.36 653.33 531.72 653.66 529 654 C529 654.66 529 655.32 529 656 C528.10796875 656.04898438 527.2159375 656.09796875 526.296875 656.1484375 C525.12640625 656.22320313 523.9559375 656.29796875 522.75 656.375 C521.58984375 656.44460938 520.4296875 656.51421875 519.234375 656.5859375 C516.10798754 656.80219095 516.10798754 656.80219095 513.96875 658.03125 C511.18615385 659.40046398 508.82662867 659.19188323 505.75 659.125 C504.67234375 659.10695313 503.5946875 659.08890625 502.484375 659.0703125 C501.25460937 659.03550781 501.25460937 659.03550781 500 659 C500 659.66 500 660.32 500 661 C499.14535156 661.04898438 498.29070312 661.09796875 497.41015625 661.1484375 C496.30542969 661.22320313 495.20070313 661.29796875 494.0625 661.375 C492.96035156 661.44460938 491.85820313 661.51421875 490.72265625 661.5859375 C489.82417969 661.72257812 488.92570312 661.85921875 488 662 C487.67 662.66 487.34 663.32 487 664 C485.71222656 664.06058594 484.42445313 664.12117188 483.09765625 664.18359375 C481.41925841 664.26798247 479.74087364 664.3526313 478.0625 664.4375 C477.21236328 664.47681641 476.36222656 664.51613281 475.48632812 664.55664062 C474.67744141 664.59853516 473.86855469 664.64042969 473.03515625 664.68359375 C472.2862915 664.72025146 471.53742676 664.75690918 470.76586914 664.79467773 C468.97538674 664.81771063 468.97538674 664.81771063 468 666 C456.72386781 667.31609036 445.33141432 667.10977689 434 667 C434 667.66 434 668.32 434 669 C373.61 669.33 313.22 669.66 251 670 C251.33 730.72 251.66 791.44 252 854 C252.66 854.33 253.32 854.66 254 855 C254 858.63 254 862.26 254 866 C253.34 866.33 252.68 866.66 252 867 C252 869.64 252 872.28 252 875 C252.66 875.33 253.32 875.66 254 876 C254.14522934 879.91627663 254.23404757 883.83186153 254.3125 887.75 C254.35439453 888.86117187 254.39628906 889.97234375 254.43945312 891.1171875 C254.56308422 899.32629216 254.56308422 899.32629216 251.79296875 902.640625 C250.41044922 903.31351563 250.41044922 903.31351563 249 904 C248.3169344 904.35307661 247.63386881 904.70615322 246.93010426 905.06992912 C242.71486564 906.40792611 238.72222029 906.26849185 234.32536316 906.24050903 C232.85500145 906.24307231 232.85500145 906.24307231 231.35493547 906.24568737 C228.06752279 906.24898385 224.78031383 906.23797581 221.49291992 906.22705078 C219.1375326 906.2264867 216.78214493 906.22680316 214.42675781 906.22793579 C208.0284669 906.22851043 201.63025074 906.21673802 195.23197722 906.20278788 C189.22400009 906.19061042 183.216014 906.18954216 177.20802668 906.18748413 C165.30899912 906.18310821 153.409999 906.1698019 141.51098633 906.15087891 C129.95304502 906.13251744 118.39511116 906.11836224 106.8371582 906.10986328 C106.12457988 906.10933783 105.41200155 906.10881239 104.67782994 906.10827102 C101.10299013 906.10566092 97.52815027 906.10313351 93.95331037 906.10064721 C64.30218872 906.07991792 34.65109567 906.04454639 5 906 C5 905.34 5 904.68 5 904 C3.4221875 904.12375 3.4221875 904.12375 1.8125 904.25 C-2.76746263 903.94967458 -3.97407202 903.415049 -7 900 C-7.7400643 896.69384731 -7.74514995 893.44055934 -7.75 890.0625 C-7.78336714 888.28249145 -7.81973402 886.50253613 -7.859375 884.72265625 C-7.87419922 883.89781738 -7.88902344 883.07297852 -7.90429688 882.22314453 C-8.01124423 879.73880121 -8.37676324 877.40750328 -9 875 C-8.34 875 -7.68 875 -7 875 C-7.00062392 874.24606761 -7.00124784 873.49213522 -7.00189067 872.71535639 C-7.06964511 790.67147695 -7.13247103 708.62759427 -7.16937256 626.58369446 C-7.16992479 625.3590467 -7.17047702 624.13439895 -7.17104598 622.87264066 C-7.18301632 596.26069516 -7.19409724 569.64874936 -7.20426132 543.03680311 C-7.20925087 529.98718182 -7.21443705 516.93756062 -7.21972656 503.88793945 C-7.2202496 502.58931343 -7.22077263 501.29068741 -7.22131152 499.95270908 C-7.23837092 457.82559456 -7.26842658 415.69850144 -7.30518888 373.5713999 C-7.34288401 330.29695927 -7.36753358 287.0225305 -7.37565996 243.74807373 C-7.37681266 237.64231435 -7.37811521 231.536555 -7.37950897 225.43079567 C-7.37991351 223.62816242 -7.37991351 223.62816242 -7.38032622 221.78911234 C-7.38506157 202.40824588 -7.40363656 183.02741596 -7.42732814 163.64656443 C-7.45082635 144.18402058 -7.45988469 124.72151311 -7.45400551 105.25895556 C-7.45095255 93.68181271 -7.45916858 82.10480258 -7.48319017 70.52768358 C-7.49812235 62.8068639 -7.4987025 55.08613172 -7.48732725 47.36530613 C-7.48125309 42.95790875 -7.48168906 38.55076339 -7.49953273 34.14339241 C-7.51561621 30.14062822 -7.51358138 26.13831474 -7.4965599 22.13555817 C-7.49368275 20.6899861 -7.49763633 19.24438177 -7.50894098 17.79885104 C-7.52324408 15.84749855 -7.51080015 13.89600356 -7.49679399 11.94464892 C-7.49741791 10.86073956 -7.49804183 9.77683021 -7.49868466 8.66007511 C-7 6 -7 6 -5.09395038 4.12845944 C-3 3 -3 3 -1 3 C-0.67 2.01 -0.34 1.02 0 0 Z M251.25 207.6875 C249.70031257 210.55442174 249.85013138 212.05545316 250.3125 215.25 C250.43238281 216.14203125 250.55226563 217.0340625 250.67578125 217.953125 C250.78277344 218.62859375 250.88976563 219.3040625 251 220 C250.34 220 249.68 220 249 220 C249.16238096 220.65613659 249.32476192 221.31227318 249.49206352 221.98829269 C250.12374345 225.7337119 250.13805132 229.40198841 250.12698364 233.18731689 C250.12854363 234.00759392 250.13010362 234.82787096 250.13171089 235.67300487 C250.13569666 238.41906584 250.13254066 241.16507144 250.12939453 243.91113281 C250.1307496 245.88066643 250.13253013 247.85019979 250.13470459 249.81973267 C250.13926511 255.16644696 250.13749533 260.51314197 250.1343255 265.85985661 C250.13179622 271.44878759 250.1341409 277.0377169 250.13571167 282.62664795 C250.13753109 292.00826311 250.13513236 301.38987041 250.13037109 310.77148438 C250.12492257 321.63301512 250.12669632 332.49452711 250.1321975 343.35605741 C250.13672753 352.67159729 250.13737991 361.98713152 250.13475883 371.30267215 C250.13319627 376.87108846 250.13300186 382.43949593 250.13629532 388.00791168 C250.13917265 393.23797362 250.13720091 398.46801123 250.13140106 403.69807053 C250.13007299 405.62304773 250.13046837 407.54802697 250.13266373 409.47300339 C250.13537324 412.08890296 250.13199665 414.70472324 250.12698364 417.32061768 C250.13032973 418.478417 250.13032973 418.478417 250.13374341 419.65960622 C250.11415027 424.88584973 250.11415027 424.88584973 249 426 C248.58787546 429.94468124 248.48306174 433.91341932 248.3125 437.875 C248.25255859 438.99003906 248.19261719 440.10507812 248.13085938 441.25390625 C248.08380859 442.32253906 248.03675781 443.39117188 247.98828125 444.4921875 C247.91927612 445.96727783 247.91927612 445.96727783 247.84887695 447.47216797 C247.80174607 450.24868109 247.80174607 450.24868109 250 453 C252.58746203 453.44853474 252.58746203 453.44853474 255.66934204 453.36076355 C256.8753154 453.36488754 258.08128876 453.36901154 259.32380676 453.3732605 C260.66720803 453.3626424 262.01060705 453.35173796 263.35400391 453.34057617 C264.76314781 453.33973031 266.17229303 453.34020424 267.58143616 453.34190369 C271.41395521 453.34276667 275.24619428 453.3250922 279.07864809 453.30418181 C283.08117547 453.2854653 287.08370881 453.28366855 291.08627319 453.28010559 C298.66882729 453.2707703 306.25125209 453.24613654 313.83374918 453.21605712 C322.4648102 453.18255918 331.09587731 453.16603871 339.72698712 453.15097082 C357.48473147 453.11958821 375.24235535 453.06679899 393 453 C393 452.34 393 451.68 393 451 C393.83023682 451.05329468 393.83023682 451.05329468 394.67724609 451.10766602 C408.87533229 452.18081352 408.87533229 452.18081352 423 451 C423.66 450.34 424.32 449.68 425 449 C428.0839836 448.61450205 431.14626626 448.49296797 434.25 448.34375 C437.14115152 448.26814222 437.14115152 448.26814222 439 446 C441.1640625 445.5859375 441.1640625 445.5859375 443.625 445.375 C444.85089844 445.26285156 444.85089844 445.26285156 446.1015625 445.1484375 C446.72804688 445.09945312 447.35453125 445.05046875 448 445 C448 444.34 448 443.68 448 443 C448.93972656 443.01740234 448.93972656 443.01740234 449.8984375 443.03515625 C450.71570312 443.04417969 451.53296875 443.05320312 452.375 443.0625 C453.59316406 443.07990234 453.59316406 443.07990234 454.8359375 443.09765625 C457.04937142 443.14466334 457.04937142 443.14466334 459 442 C459 441.34 459 440.68 459 440 C459.721875 439.87625 460.44375 439.7525 461.1875 439.625 C463.95721894 439.0095069 466.3970354 438.11555626 469 437 C469 436.34 469 435.68 469 435 C470.65 434.67 472.3 434.34 474 434 C474 433.34 474 432.68 474 432 C474.5775 431.87625 475.155 431.7525 475.75 431.625 C478.02335767 430.99351176 479.9253529 430.11141809 482 429 C482 428.34 482 427.68 482 427 C482.99 426.67 483.98 426.34 485 426 C485 425.34 485 424.68 485 424 C485.66 424 486.32 424 487 424 C487 423.34 487 422.68 487 422 C487.99 421.67 488.98 421.34 490 421 C490 420.34 490 419.68 490 419 C490.99 418.67 491.98 418.34 493 418 C493 417.34 493 416.68 493 416 C493.66 416 494.32 416 495 416 C495 415.34 495 414.68 495 414 C495.99 413.67 496.98 413.34 498 413 C498 412.34 498 411.68 498 411 C498.66 411 499.32 411 500 411 C500.33 409.35 500.66 407.7 501 406 C501.66 406 502.32 406 503 406 C508.296023 399.31028674 511.78609145 392.34787563 514.19140625 384.17578125 C515 382 515 382 516.55078125 379.62109375 C518.26634644 376.51827908 518.46015986 374.2723736 518.625 370.75 C518.9151671 365.0848329 518.9151671 365.0848329 520 364 C520.23727795 360.87772345 520.39553656 357.76319706 520.51757812 354.63476562 C520.79089073 349.35931665 520.79089073 349.35931665 522.01147461 347.26196289 C523.4559831 343.95661066 523.2458668 340.71304321 523.1953125 337.171875 C523.1924826 336.42286926 523.18965271 335.67386353 523.18673706 334.90216064 C523.1755726 332.51794224 523.15047531 330.13410421 523.125 327.75 C523.11496535 326.13021377 523.10584035 324.51042164 523.09765625 322.890625 C523.07564555 318.92693754 523.04114175 314.96353319 523 311 C522.01 310.67 521.02 310.34 520 310 C520.01740234 308.39318359 520.01740234 308.39318359 520.03515625 306.75390625 C520.04453299 305.35677257 520.05363331 303.95963701 520.0625 302.5625 C520.07087891 301.85544922 520.07925781 301.14839844 520.08789062 300.41992188 C520.09653588 298.61306441 520.05220011 296.80612397 520 295 C519.67 294.67 519.34 294.34 519 294 C518.63239269 291.67182036 518.29758419 289.3381615 518 287 C517.01 286.67 516.02 286.34 515 286 C515 282.7 515 279.4 515 276 C514.34 275.67 513.68 275.34 513 275 C513 273.02 513 271.04 513 269 C512.01 268.67 511.02 268.34 510 268 C510 266.35 510 264.7 510 263 C509.38125 262.773125 508.7625 262.54625 508.125 262.3125 C505.38589791 260.62070165 504.94975528 259.00755839 504 256 C503.34 256 502.68 256 502 256 C501.67 254.35 501.34 252.7 501 251 C500.01 250.67 499.02 250.34 498 250 C497.67 249.01 497.34 248.02 497 247 C496.34 247 495.68 247 495 247 C495 246.34 495 245.68 495 245 C494.34 245 493.68 245 493 245 C493 244.34 493 243.68 493 243 C491.35 242.67 489.7 242.34 488 242 C488 241.34 488 240.68 488 240 C485.36315253 237.60179695 485.36315253 237.60179695 482 237 C481.6596875 236.0409375 481.6596875 236.0409375 481.3125 235.0625 C480.14749104 232.72806339 480.14749104 232.72806339 477.375 232.25 C476.199375 232.12625 476.199375 232.12625 475 232 C474.67 231.01 474.34 230.02 474 229 C472.35 229 470.7 229 469 229 C468.67 228.01 468.34 227.02 468 226 C466.68 226 465.36 226 464 226 C464 225.34 464 224.68 464 224 C462.35 224 460.7 224 459 224 C458.67 223.01 458.34 222.02 458 221 C455.69 221 453.38 221 451 221 C451 220.34 451 219.68 451 219 C449.02 218.67 447.04 218.34 445 218 C445 217.34 445 216.68 445 216 C443.35 216 441.7 216 440 216 C439.67 215.01 439.34 214.02 439 213 C433.39 213 427.78 213 422 213 C422 212.34 422 211.68 422 211 C420.92878906 210.86722656 419.85757813 210.73445312 418.75390625 210.59765625 C417.35674231 210.4194944 415.95960841 210.24109681 414.5625 210.0625 C413.85544922 209.97548828 413.14839844 209.88847656 412.41992188 209.79882812 C407.11328125 209.11328125 407.11328125 209.11328125 406 208 C404.11438482 207.90345273 402.22510545 207.87812759 400.33702087 207.87974548 C398.49225914 207.87768349 398.49225914 207.87768349 396.61022949 207.87557983 C395.23486304 207.87911944 393.85949683 207.88275426 392.48413086 207.88647461 C391.04557802 207.88675648 389.60702504 207.88659876 388.16847229 207.8860321 C384.25128857 207.88574411 380.33413521 207.89164116 376.41695857 207.89860606 C372.32766163 207.90483926 368.23836407 207.90544337 364.14906311 207.90663147 C356.40007602 207.90974489 348.65110297 207.91795841 340.90212208 207.92798096 C332.08243791 207.93914178 323.26275309 207.94465247 314.44306362 207.94967639 C296.29536777 207.96014102 278.14768501 207.97774066 260 208 C260 207.34 260 206.68 260 206 C255.18496927 205.41125353 255.18496927 205.41125353 251.25 207.6875 Z " fill="#2C6E79" transform="translate(1025,512)"/>
<path d="M0 0 C16.17 0 32.34 0 49 0 C49 0.99 49 1.98 49 3 C48.01 3 47.02 3 46 3 C46 3.66 46 4.32 46 5 C44.68 5.33 43.36 5.66 42 6 C42 6.66 42 7.32 42 8 C39.94709452 9.02645274 37.90024097 10.04560413 35.8125 11 C33.82798477 11.87144569 33.82798477 11.87144569 33 14 C29.04 14 25.08 14 21 14 C21 13.67 21 13.34 21 13 C16.38 12.34 11.76 11.68 7 11 C7 10.34 7 9.68 7 9 C6.05125 8.9175 5.1025 8.835 4.125 8.75 C1 8 1 8 -0.4375 6.1875 C-1 4 -1 4 0 0 Z " fill="#74B13A" transform="translate(1667,480)"/>
<path d="M0 0 C2.97 0 5.94 0 9 0 C9 3.63 9 7.26 9 11 C5.625 11.1875 5.625 11.1875 2 11 C-0.67927341 6.98108988 -0.15601248 4.75838077 0 0 Z " fill="#74B13A" transform="translate(142,1258)"/>
<path d="M0 0 C2.31 0 4.62 0 7 0 C7 0.66 7 1.32 7 2 C7.99 2.33 8.98 2.66 10 3 C10.04254356 4.99954746 10.04080783 7.00041636 10 9 C9 10 9 10 6.125 10.25 C3 10 3 10 1.125 8.9375 C-0.58196395 5.99772876 -0.18799766 3.32129197 0 0 Z " fill="#2C6E79" transform="translate(1514,884)"/>
<path d="M0 0 C2.475 0.495 2.475 0.495 5 1 C5 3.31 5 5.62 5 8 C3.35 8 1.7 8 0 8 C0 5.36 0 2.72 0 0 Z " fill="#74B13A" transform="translate(819,779)"/>
<path d="M0 0 C1.98 0 3.96 0 6 0 C6.33 1.65 6.66 3.3 7 5 C4.36 5 1.72 5 -1 5 C-0.67 3.35 -0.34 1.7 0 0 Z " fill="#74B13A" transform="translate(224,1372)"/>
<path d="M0 0 C2.31 0 4.62 0 7 0 C7.5625 1.9375 7.5625 1.9375 8 4 C7 5 7 5 3.4375 5.0625 C2.303125 5.041875 1.16875 5.02125 0 5 C0 3.35 0 1.7 0 0 Z " fill="#74B13A" transform="translate(460,711)"/>
<path d="M0 0 C1.32 0.66 2.64 1.32 4 2 C4 3.65 4 5.3 4 7 C2.35 7.33 0.7 7.66 -1 8 C-1.04241723 5.66705225 -1.04092937 3.33297433 -1 1 C-0.67 0.67 -0.34 0.34 0 0 Z " fill="#2C6E79" transform="translate(1747,1073)"/>
<path d="M0 0 C2.31 0 4.62 0 7 0 C7 1.32 7 2.64 7 4 C1.25 5.125 1.25 5.125 -1 4 C-0.67 2.68 -0.34 1.36 0 0 Z " fill="#2C6E79" transform="translate(1509,768)"/>
<path d="M0 0 C1.98 0.495 1.98 0.495 4 1 C4 2.32 4 3.64 4 5 C3.01 5.33 2.02 5.66 1 6 C0.34 5.67 -0.32 5.34 -1 5 C-0.67 3.35 -0.34 1.7 0 0 Z " fill="#74B13A" transform="translate(230,930)"/>
<path d="M0 0 C1.65 0 3.3 0 5 0 C4.67 1.65 4.34 3.3 4 5 C2.68 4.67 1.36 4.34 0 4 C0 2.68 0 1.36 0 0 Z " fill="#2C6E79" transform="translate(1511,910)"/>
<path d="M0 0 C0.99 0.33 1.98 0.66 3 1 C3 2.32 3 3.64 3 5 C1.68 5 0.36 5 -1 5 C-0.67 3.35 -0.34 1.7 0 0 Z " fill="#2C6E79" transform="translate(1502,899)"/>
</svg>
